<?xml version="1.0" encoding="UTF-8"?>
<svg width="43px" height="54px" viewBox="0 0 43 54" version="1.1" xmlns="http://www.w3.org/2000/svg" xmlns:xlink="http://www.w3.org/1999/xlink">
    <!-- Generator: Sketch 54 (76480) - https://sketchapp.com -->
    <title>编组 26</title>
    <desc>Created with Sketch.</desc>
    <g id="页面1" stroke="none" stroke-width="1" fill="none" fill-rule="evenodd">
        <g id="手机" transform="translate(-528.000000, -748.000000)" fill="#FFFFFF">
            <g id="编组-35" transform="translate(34.000000, 71.000000)">
                <g id="编组-36" transform="translate(0.000000, 585.000000)">
                    <g id="编组-26" transform="translate(490.000000, 86.000000)">
                        <g id="编组-25" transform="translate(0.490312, 0.597389)">
                            <g id="编组-24" transform="translate(28.424015, 26.671522) rotate(23.000000) translate(-28.424015, -26.671522) translate(13.924015, 4.171522)">
                                <g id="编组-22">
                                    <g id="编组-21">
                                        <g id="编组-20">
                                            <polygon id="路径-11" points="13.9266941 1.26121336e-13 1.11910481e-13 8.64947511 14.1532193 16.1404361 28.3064386 8.64947511"></polygon>
                                            <polygon id="路径-11" points="13.9266941 7.05592105 -1.17239551e-13 15.7053962 14.1532193 23.1963572 28.3064386 15.7053962"></polygon>
                                            <polygon id="路径-11" points="13.9266941 21.1677632 -1.17239551e-13 29.8172383 14.1532193 37.3081993 28.3064386 29.8172383"></polygon>
                                        </g>
                                        <polygon id="路径-11" points="13.9266941 14.1118421 -1.17239551e-13 22.7613172 14.1532193 30.2522782 28.3064386 22.7613172"></polygon>
                                    </g>
                                    <polygon id="路径-11" points="13.9266941 28.2236842 1.10134124e-13 36.8731593 14.1532193 44.3641203 28.3064386 36.8731593"></polygon>
                                </g>
                                <g id="路径-13" transform="translate(0.000000, 21.167763)">
                                    <polygon id="路径-11" points="13.9266941 1.26121336e-13 -1.17239551e-13 8.64947511 14.1532193 16.1404361 28.3064386 8.64947511"></polygon>
                                </g>
                            </g>
                            <g id="路径-12" transform="translate(17.226836, 51.766822) rotate(23.000000) translate(-17.226836, -51.766822) translate(2.726836, 43.766822)">
                                <polygon id="路径-11" points="13.9266941 1.26121336e-13 -1.17239551e-13 8.53714427 14.1532193 15.9308201 28.3064386 8.53714427"></polygon>
                            </g>
                        </g>
                        <g id="路径-12" transform="translate(19.825299, 46.693229) rotate(23.000000) translate(-19.825299, -46.693229) translate(5.325299, 38.693229)">
                            <polygon id="路径-11" points="13.9266941 1.26121336e-13 -1.17239551e-13 8.53714427 14.1532193 15.9308201 28.3064386 8.53714427"></polygon>
                        </g>
                    </g>
                </g>
            </g>
        </g>
    </g>
</svg>