<?xml version="1.0" encoding="UTF-8"?>
<svg width="10px" height="18px" viewBox="0 0 10 18" version="1.1" xmlns="http://www.w3.org/2000/svg" xmlns:xlink="http://www.w3.org/1999/xlink">
    <!-- Generator: Sketch 54 (76480) - https://sketchapp.com -->
    <title>形状</title>
    <desc>Created with Sketch.</desc>
    <g id="页面1" stroke="none" stroke-width="1" fill="none" fill-rule="evenodd">
        <path d="M10,6.87269213 L10,11.1273079 C10,11.4000644 9.90887885,11.6318724 9.72646878,11.8227317 C9.5442265,12.0137667 9.32288434,12.1090206 9.06244233,12.1090206 C8.80200031,12.1090206 8.58065817,12.013591 8.39841587,11.8227317 C8.21600578,11.6316966 8.12488463,11.4000644 8.12488463,11.1273079 L8.12488463,7.52734303 L7.49979025,7.52734303 L7.49979025,16.8546685 C7.49979025,17.1683737 7.39239148,17.4376153 7.17759393,17.6625692 C6.96262859,17.8876988 6.70554279,18 6.40616872,18 C6.10662685,18 5.84954105,17.8875231 5.63457571,17.6625692 C5.41977816,17.4376153 5.31237941,17.1681979 5.31237939,16.8546685 L5.31237939,12.1091964 L4.687285,12.1091964 L4.687285,16.8546685 C4.687285,17.1683737 4.57971842,17.4376153 4.3650887,17.6625692 C4.15012337,17.8876988 3.89303756,18 3.59366348,18 C3.29412161,18 3.0370358,17.8875231 2.82207046,17.6625692 C2.60727292,17.4376153 2.49987416,17.1681979 2.49987415,16.8546685 L2.49987415,7.52734303 L1.87494757,7.52734303 L1.87494757,11.1273079 C1.87494757,11.4000644 1.78382642,11.6318724 1.60158414,11.8227317 C1.41917405,12.0137667 1.19799971,12.1090206 0.937557691,12.1090206 C0.677115675,12.1090206 0.455773536,12.013591 0.273531239,11.8227317 C0.0911211483,11.6316966 0,11.4000644 0,11.1273079 L0,6.87269213 C0,6.32735474 0.182410091,5.86356314 0.546894667,5.48166879 C0.911547055,5.09977445 1.35423135,4.90891516 1.87494757,4.90891516 L8.12505245,4.90891516 C8.64576867,4.90891516 9.08862077,5.09977445 9.45327316,5.48166879 C9.81775774,5.86356314 10,6.32735474 10,6.87269213 L10,6.87269213 Z M7.18749476,2.2908388 C7.18749476,2.92492751 6.97437533,3.46534402 6.54780084,3.9119126 C6.12139417,4.35865692 5.60537665,4.58185333 4.9999161,4.58185333 C4.39445555,4.58185333 3.87843803,4.35865692 3.45203136,3.9119126 C3.02545688,3.46534402 2.81233745,2.92492751 2.81233745,2.2908388 C2.81233745,1.65675009 3.02562467,1.11650931 3.45203136,0.669764988 C3.87843803,0.223196414 4.39445555,0 4.9999161,0 C5.60537665,0 6.12122636,0.223196414 6.54780084,0.669940734 C6.97420751,1.11650931 7.18749476,1.65692582 7.18749476,2.2908388 Z" id="形状" fill="#D75E5E" fill-rule="nonzero"></path>
    </g>
</svg>